/* XPM */
static const char *accept_xpm[] = {
/* width height ncolors chars_per_pixel */
"20 19 6 1",
/* colors */
"  c #000000",
". c #00FF00",
"X c #C0C0C0",
"o c #7A7A7A",
"O c #FFFFFF",
"+ c None",
/* pixels */
"++++++++++++++++++++",
"++++++++++++++++++++",
"++++++++++++++++++++",
"+++++++++++++OO ++++",
"++++++++++++O.. ++++",
"++++++++++++O. +++++",
"+++++++O ++O.. +++++",
"++++++O. ++O.. +++++",
"++++++O. ++O. ++++++",
"++++++o.. O.. ++++++",
"+++++++o. O. +++++++",
"+++++++o. .. +++++++",
"+++++++ .... +++++++",
"++++++++o.. ++++++++",
"++++++++o   ++++++++",
"++++++++++++++++++++",
"++++++++++++++++++++",
"++++++++++++++++++++",
"++++++++++++++++++++"
};
