/* XPM */
static const char *cancel_xpm[] = {
/* width height ncolors chars_per_pixel */
"20 19 5 1",
/* colors */
"  c #000000",
". c #C0C0C0",
"X c #FF0000",
"o c #FFFFFF",
"O c None",
/* pixels */
"OOOOOOOOOOOOOOOOOOOO",
"OOOOOOOOOOOOOOOOOOOO",
"OOOOOOOOOOOOOOoOOOOO",
"OOOOOoOOOOOOOoXoOOOO",
"OOOOoXoOOOOOoX OOOOO",
"OOOOoXXoOOOoXX OOOOO",
"OOOO XXXoOoXX OOOOOO",
"OOOOO XXXoXX OOOOOOO",
"OOOOOO  XXXX OOOOOOO",
"OOOOOOOO XX OOOOOOOO",
"OOOOOOOoXXXoOOOOOOOO",
"OOOOOOoXXXXXoOOOOOOO",
"OOOOOOoXX  XXoOOOOOO",
"OOOOOoXX OO XXoOOOOO",
"OOOOoXX OOOO XXoOOOO",
"OOOOXX OOOOO X  OOOO",
"OOO   OOOOOOO  OOOOO",
"OOOOOOOOOOOOOOOOOOOO",
"OOOOOOOOOOOOOOOOOOOO"
};
