/* XPM */
static const char *delchord_xpm[] = {
/* width height ncolors chars_per_pixel */
"20 19 5 1",
/* colors */
"  c #000000",
". c #C0C0C0",
"X c #FF0000",
"o c #FFFFFF",
"O c None",
/* pixels */
"OOOOOOOOOOOOOOOOOOOO",
"OOOOOOOOOOOOOOOOOOOO",
"OOOOOOOOOOOOOOOOOOOO",
"OOOOOOOOOOOOOOOXXOOO",
"OOOOXXOOOOOOOOXXOOOO",
"OOOOOXXOOOOOOXXOOOOO",
"OOOOOOXX    XXOOOOOO",
"OOOOOO XXooXX OOOOOO",
"OOOOOO oXXXXo OOOOOO",
"OOOOOO oXXXoo OOOOOO",
"OOOOOO XXoXXo OOOOOO",
"OOOOOOXX   XX OOOOOO",
"OOOOOXXOOOOOXXOOOOOO",
"OOOOXXOOOOOOOXXOOOOO",
"OOOOXOOOOOOOOOXXOOOO",
"OOOOOOOOOOOOOOOXXOOO",
"OOOOOOOOOOOOOOOOOOOO",
"OOOOOOOOOOOOOOOOOOOO",
"OOOOOOOOOOOOOOOOOOOO"
};
