/* XPM */
static const char *dialog_xpm[] = {
/* width height ncolors chars_per_pixel */
"20 19 4 1",
/* colors */
"  c #000000",
". c #C0C0C0",
"X c #0000FF",
"o c None",
/* pixels */
"oooooooooooooooooooo",
"oooooooooooooooooooo",
"oooooooooooooooooooo",
"oooooooooooooooooooo",
"ooooXXXXXXXXoooooooo",
"oooooooooooooooooooo",
"ooooXXXXXXXXoooooooo",
"oooooooooooooooooooo",
"ooooXXXXXXXXoooooooo",
"oooooooooooooooooooo",
"oooooooooooooooooooo",
"ooooooo         oooo",
"ooooooo ooooooo oooo",
"ooooooo ooooooo oooo",
"ooooooo         oooo",
"oooooooooooooooooooo",
"oooooooooooooooooooo",
"oooooooooooooooooooo",
"oooooooooooooooooooo"
};
