/* XPM */
static const char *haunsch_xpm[] = {
/* width height ncolors chars_per_pixel */
"20 19 4 1",
/* colors */
"  c #000000",
". c #00FFFF",
"X c #C0C0C0",
"o c None",
/* pixels */
"oooooooooooooooooooo",
"oooooooooooooooooooo",
"oooooooooooooooooooo",
"ooo       o.oooooooo",
"ooo ooooo   .ooooooo",
"ooo ooooo o. .oooooo",
"ooo       o.. .ooooo",
"ooooooooooo.. ..oooo",
"oo........... ...ooo",
"oo........... ....oo",
"oo..........   ..ooo",
"ooooooooooo.. ..oooo",
"oooooooo        oooo",
"oooooooo oo...o oooo",
"oooooooo oo..oo oooo",
"oooooooo        oooo",
"oooooooooooooooooooo",
"oooooooooooooooooooo",
"oooooooooooooooooooo"
};
