/* XPM */
static const char *ionscale_xpm[] = {
/* width height ncolors chars_per_pixel */
"20 19 4 1",
/* colors */
"  c #C0C0C0",
". c #FF0000",
"X c #0000FF",
"o c None",
/* pixels */
"oooooooooooooooooooo",
"oooooooooooooooooooo",
"ooooooooooooooo...oo",
"oooooooooooooooooooo",
"oooooXXooooXXXX.oooo",
"oooXXXXoooXXooXXoooo",
"oooooXXoooo...XXoooo",
"oooooXXoooooXXXooooo",
"oooooXXoo...ooXXoooo",
"oooooXXoooooooXXoooo",
"oooooXX...ooooXXoooo",
"oooooXXoooXXooXXoooo",
"oooooXX.oooXXXXooooo",
"oooooooooooooooooooo",
"ooo...oooooooooooooo",
"oooooooooooooooooooo",
"oo...ooooooooooooooo",
"oooooooooooooooooooo",
"oooooooooooooooooooo"
};
