/* XPM */
static const char *length_xpm[] = {
/* width height ncolors chars_per_pixel */
"20 19 4 1",
/* colors */
"  c #000000",
". c #C0C0C0",
"X c #0000FF",
"o c None",
/* pixels */
"oooooooooooooooooooo",
"oooooooooooooooooooo",
"oooooooooooooooooooo",
"oooooooooooooooooooo",
"ooooooooooXXooXXoooo",
"oooooooooXXooooXXooo",
"ooooooooXXXXXXXXXXoo",
"oooooooooXXooooXXooo",
"ooooooooooXXooXXoooo",
"oooooooooooooooooooo",
"ooooo          ooooo",
"ooooo          ooooo",
"ooooo          ooooo",
"oooooooooooooooooooo",
"oooooooooooooooooooo",
"oooooooooooooooooooo",
"oooooooooooooooooooo",
"oooooooooooooooooooo",
"oooooooooooooooooooo"
};
