/* XPM */
static const char *majscale_xpm[] = {
/* width height ncolors chars_per_pixel */
"20 19 4 1",
/* colors */
"  c #C0C0C0",
". c #FF0000",
"X c #0000FF",
"o c None",
/* pixels */
"oooooooooooooooooooo",
"oooooooooooooooooooo",
"ooooooooooooooo...oo",
"ooooooooooXXoooooooo",
"ooooooooooXXo...oooo",
"ooooooooooXXoooooooo",
"ooooooooooXX..oooooo",
"ooooooooooXXoooooooo",
"ooooooooo.XXoooooooo",
"ooooooooooXXoooooooo",
"oooooXX...XXoooooooo",
"oooooXXoooXXoooooooo",
"oooooXXXoXXXoooooooo",
"ooooooXXXXXooooooooo",
"ooo...oooooooooooooo",
"oooooooooooooooooooo",
"oo..oooooooooooooooo",
"oooooooooooooooooooo",
"oooooooooooooooooooo"
};
