/* XPM */
static const char *melscale_xpm[] = {
/* width height ncolors chars_per_pixel */
"20 19 4 1",
/* colors */
"  c #C0C0C0",
". c #FF0000",
"X c #0000FF",
"o c None",
/* pixels */
"oooooooooooooooooooo",
"oooooooooooooooooooo",
"ooooooooooooooo...oo",
"oooooooooooooooooooo",
"ooooXXoooooooXX.oooo",
"ooooXXoooooooXXooooo",
"ooooXXXoooo.XXXooooo",
"ooooXXXoooooXXXooooo",
"ooooXXXXo..XXXXooooo",
"ooooXXoXoooXoXXooooo",
"ooooXXoX..oXoXXooooo",
"ooooXXoXXoXXoXXooooo",
"ooooXX..XoXooXXooooo",
"ooooXXooXXXooXXooooo",
"ooo.XXoooXoooXXooooo",
"oooooooooooooooooooo",
"oo..oooooooooooooooo",
"oooooooooooooooooooo",
"oooooooooooooooooooo"
};
