/* XPM */
static const char *mixer_xpm[] = {
/* width height ncolors chars_per_pixel */
"20 19 4 1",
/* colors */
"  c #C0C0C0",
". c #808080",
"X c #0000FF",
"o c None",
/* pixels */
"oooooooooooooooooooo",
"oooooooooooooooooooo",
"oooooooooooooooooooo",
"ooooooXXoooooooooooo",
"ooooooXXoooooooooooo",
"ooooooXXoooooooooooo",
"ooooooXXooooXXoooooo",
"oooo..XX....XX..oooo",
"ooooooXXooooXXoooooo",
"ooooooXXooooXXoooooo",
"oooo..XX....XX..oooo",
"ooooooXXooooXXoooooo",
"ooooooXXooooXXoooooo",
"oooo..XX....XX..oooo",
"ooooooXXooooXXoooooo",
"ooooooXXooooXXoooooo",
"oooo..XX....XX..oooo",
"oooooooooooooooooooo",
"oooooooooooooooooooo"
};
