/* XPM */
static const char *note163_xpm[] = {
/* width height ncolors chars_per_pixel */
"20 19 4 1",
/* colors */
"  c #000000",
". c #C0C0C0",
"X c #808080",
"o c None",
/* pixels */
"oooooooooooooooooooo",
"oooooooooooooooooooo",
"ooooooooooo  ooooooo",
"ooooo  oooo X oooooo",
"oooo oo ooo X oooooo",
"ooooooo ooo oX ooooo",
"oooooo oooo  o ooooo",
"ooooooo ooo  Xo oooo",
"oooo oo ooo X o oooo",
"ooooo  oooo o o oooo",
"ooooooooooo oo ooooo",
"ooooooooooo oo ooooo",
"oooooooo    o oooooo",
"ooooooo     oooooooo",
"ooooooo     oooooooo",
"oooooooo   ooooooooo",
"oooooooooooooooooooo",
"oooooooooooooooooooo",
"oooooooooooooooooooo"
};
