/* XPM */
static const char *panic_xpm[] = {
/* width height ncolors chars_per_pixel */
"20 19 7 1",
/* colors */
"  c #000000",
". c #00FFFF",
"X c #00FF00",
"o c #C0C0C0",
"O c #FF0000",
"+ c #008000",
"@ c None",
/* pixels */
"@@@@@@@@@@@@@@@@@@@@",
"@@@@@@@@@@@@@@@@@@@@",
"@@@@O@@@ @@@..@O@@@@",
"@@@@OO@  @@@@@OO@@@@",
"@@@@@OO  @XX@OO.@@@@",
"@@@@@@OO @@@OO@.@@@@",
"@@@@@  OO+@OO@@.@@@@",
"@@      OO+OX@@.@@@@",
"@@       OO@X@@.@@@@",
"@@      OOOOX@@.@@@@",
"@@     OO@+OO@@.@@@@",
"@@@@@ OO +@@OO@.@@@@",
"@@@@@OO  @@@XOO.@@@@",
"@@@@OO@  @XX@@OO@@@@",
"@@@OO@@  @@@@@.OO@@@",
"@@@@@@@@ @@@..@@OO@@",
"@@@@@@@@ @@@@@@@@@@@",
"@@@@@@@@@@@@@@@@@@@@",
"@@@@@@@@@@@@@@@@@@@@"
};
