/* XPM */
static const char *playloop_xpm[] = {
/* width height ncolors chars_per_pixel */
"20 19 5 1",
/* colors */
"  c #000000",
". c #C0C0C0",
"X c #FFFFFF",
"o c #0000FF",
"O c None",
/* pixels */
"OOOOOOOOOOOOOOOOOOOO",
"OOOOOOOOOOOOOOOOOOOO",
"OOOOOOOOOOOOOOOOOOOO",
"OOOOOOXXOOOOOOOOOOOO",
"OOOOOOX XOOOOOOOOOOO",
"OOOOOOX  XOOOOOOOOOO",
"OOOOOOX   XOOOOOOOOO",
"OOOOOOX    XOOOOOOOO",
"OOOOOOX     OOOOOOOO",
"OOOOOOX    OOOOOOOOO",
"OOOOOOX   OOOOOOOOOO",
"OOOOOOX  OOoOOOOOOOO",
"OOOOOOX OOooOOOOOOOO",
"OOOOOOOOOoooooooOOOO",
"OOOOOOOOOoooooooOOOO",
"OOOOOOOOOOooOOOOOOOO",
"OOOOOOOOOOOoOOOOOOOO",
"OOOOOOOOOOOOOOOOOOOO",
"OOOOOOOOOOOOOOOOOOOO"
};
