/* XPM */
static const char *quantize_xpm[] = {
/* width height ncolors chars_per_pixel */
"20 19 4 1",
/* colors */
"  c #000000",
". c #C0C0C0",
"X c #0000FF",
"o c None",
/* pixels */
"oooooooooooooooooooo",
"oooooooooooooooooooo",
"ooXooooooooXoooooooo",
"ooXooooooooXoooooooo",
"ooXooXooXooXooXooXoo",
"ooXooXooXooXooXooXoo",
"ooXooXooXooXooXooXoo",
"oooooooooooooooooooo",
"oooo ooo  ooo  ooooo",
"ooo  oo oo o oo oooo",
"oo o oo oo oooo oooo",
"oooo ooooo oooo oooo",
"oooo ooooo ooo ooooo",
"oooo oooo ooooo oooo",
"oooo ooo ooo oo oooo",
"oooo oo    oo  ooooo",
"oooooooooooooooooooo",
"oooooooooooooooooooo",
"oooooooooooooooooooo"
};
