/* XPM */
static const char *record_xpm[] = {
/* width height ncolors chars_per_pixel */
"20 19 5 1",
/* colors */
"  c #000000",
". c #C0C0C0",
"X c #FF0000",
"o c #FFFFFF",
"O c None",
/* pixels */
"OOOOOOOOOOOOOOOOOOOO",
"OOOOOOOOOOOOOOOOOOOO",
"OOOOOOOOOOOOOOOOOOOO",
"OOOOOOOOOOOOOOOOOOOO",
"OOOOOOOOOOOOOOOOOOOO",
"OOOOOOOOooooOOOOOOOO",
"OOOOOOOoXXXX OOOOOOO",
"OOOOOOoXXXXXX OOOOOO",
"OOOOOOoXXXXXX OOOOOO",
"OOOOOOoXXXXXX OOOOOO",
"OOOOOOoXXXXXX OOOOOO",
"OOOOOOO XXXX OOOOOOO",
"OOOOOOOO    OOOOOOOO",
"OOOOOOOOOOOOOOOOOOOO",
"OOOOOOOOOOOOOOOOOOOO",
"OOOOOOOOOOOOOOOOOOOO",
"OOOOOOOOOOOOOOOOOOOO",
"OOOOOOOOOOOOOOOOOOOO",
"OOOOOOOOOOOOOOOOOOOO"
};
