/* XPM */
static const char *repl_xpm[] = {
/* width height ncolors chars_per_pixel */
"20 19 4 1",
/* colors */
"  c #000000",
". c #C0C0C0",
"X c #0000FF",
"o c None",
/* pixels */
"oooooooooooooooooooo",
"oooooooooooooooooooo",
"oooooooooooooooooooo",
"oooooo oooooXooooXoo",
"oooooo oooooXooooXoo",
"oooooo oooooXooooXoo",
"oooooo oooooXooooXoo",
"oooooo oooooXooooXoo",
"oooooo oooooXooooXoo",
"oooooo oooooXooooXoo",
"oooooo oooooXooooXoo",
"oooooo oooooXooooXoo",
"ooo    ooXXXXoXXXXoo",
"oo     oXXXXXXXXXXoo",
"oo     oXXXXXXXXXXoo",
"ooo   oooXXXooXXXooo",
"oooooooooooooooooooo",
"oooooooooooooooooooo",
"oooooooooooooooooooo"
};
