/* XPM */
static const char *rrgadd_xpm[] = {
/* width height ncolors chars_per_pixel */
"20 19 5 1",
/* colors */
"  c #000000",
". c #C0C0C0",
"X c #FFFFFF",
"o c #C1C1C1",
"O c None",
/* pixels */
"OOOOOOOOOOOOOOOOOOOO",
"OOOOOOOOOOOOOOOOOOOO",
"OOOOOOOOOOOOOOOOOOOO",
"OOOOOOOOOOOOOOOOOOOO",
"OOOOOOOOXX OOOOOOOOO",
"OOOOOOOOXo OOOOOOOOO",
"OOOOOOOOXo OOOOOOOOO",
"OOOOOOOOXo OOOOOOOOO",
"OOOOXXXXXoXXXX OOOOO",
"OOOOXooooooooo OOOOO",
"OOOOX   Xo     OOOOO",
"OOOOOOOOXo OOOOOOOOO",
"OOOOOOOOXo OOOOOOOOO",
"OOOOOOOOXo OOOOOOOOO",
"OOOOOOOO   OOOOOOOOO",
"OOOOOOOOOOOOOOOOOOOO",
"OOOOOOOOOOOOOOOOOOOO",
"OOOOOOOOOOOOOOOOOOOO",
"OOOOOOOOOOOOOOOOOOOO"
};
