/* XPM */
static const char *rrggen_xpm[] = {
/* width height ncolors chars_per_pixel */
"20 19 5 1",
/* colors */
"  c #000000",
". c #C0C0C0",
"X c #FFFFFF",
"o c #FFFF00",
"O c None",
/* pixels */
"OOOOOOOOOOOOOOOOOOOO",
"OOOOOOOOOOOOOOOOOOOO",
"OOOOOOOOoOOOOOOOOOOO",
"OOOOOOOOoOOOOoOOOOOO",
"OOOOOXOoOOOooOOOOOOO",
"OOOOXXXoOOoOOOOOOOOO",
"OOOOOXX OoOOOOOOOOOO",
"OOOOOO   OOOOOOOOOOO",
"OOooooo   OOOOOOOOOO",
"OOOOoooo   OOOOOOOOO",
"OOOoOOooO   OOOOOOOO",
"OOoOOOOooO   OOOOOOO",
"OOOOOOOoOoO   OOOOOO",
"OOOOOOOoOoOO  OOOOOO",
"OOOOOOOoOOoOOOOOOOOO",
"OOOOOOOOOOoOOOOOOOOO",
"OOOOOOOOOOOoOOOOOOOO",
"OOOOOOOOOOOOOOOOOOOO",
"OOOOOOOOOOOOOOOOOOOO"
};
