/* XPM */
static const char *rrgup_xpm[] = {
/* width height ncolors chars_per_pixel */
"20 19 4 1",
/* colors */
"  c #00FF00",
". c #C0C0C0",
"X c #0000FF",
"o c None",
/* pixels */
"oooooooooooooooooooo",
"oooooooooooooooooooo",
"ooooo         oooooo",
"ooooo         oooooo",
"oooooooooXoooooooooo",
"ooooooooXXXooooooooo",
"oooooooXXXXXoooooooo",
"ooooooXXXXXXXooooooo",
"oooooXXXXXXXXXoooooo",
"ooooooooXXXooooooooo",
"ooooooooXXXooooooooo",
"ooooooooXXXooooooooo",
"ooooooooXXXooooooooo",
"oooooooooooooooooooo",
"oooooooooooooooooooo",
"oooooooooooooooooooo",
"oooooooooooooooooooo",
"oooooooooooooooooooo",
"oooooooooooooooooooo"
};
