/* XPM */
static const char *sameb_xpm[] = {
/* width height ncolors chars_per_pixel */
"20 19 4 1",
/* colors */
"  c #000000",
". c #00FFFF",
"X c #C0C0C0",
"o c None",
/* pixels */
"oooooooooooooooooooo",
"oooooooooooooooooooo",
"oooooooooooooooooooo",
"ooooooooooo.oooooooo",
"ooooooooooo..ooooooo",
"ooooooooo     oooooo",
"ooooooooo  ..  ooooo",
"ooooooooo  ..  .oooo",
"oo.     .     ...ooo",
"oo.......  ..  ...oo",
"oo.     .  ..  ..ooo",
"ooooooooo  ..  .oooo",
"ooooooooo     .ooooo",
"ooooooooooo...oooooo",
"ooooooooooo..ooooooo",
"ooooooooooo.oooooooo",
"oooooooooooooooooooo",
"oooooooooooooooooooo",
"oooooooooooooooooooo"
};
