/* XPM */
static const char *same3_xpm[] = {
/* width height ncolors chars_per_pixel */
"20 19 4 1",
/* colors */
"  c #000000",
". c #00FFFF",
"X c #C0C0C0",
"o c None",
/* pixels */
"oooooooooooooooooooo",
"oooooooooooooooooooo",
"oooooooooooooooooooo",
"ooooooooooo.oooooooo",
"ooooooooooo..ooooooo",
"ooooooooooo   oooooo",
"oooooooooo  .  ooooo",
"ooooooooooo..  .oooo",
"oo..     ...  ...ooo",
"oo...........  ...oo",
"oo..     ....  ..ooo",
"oooooooooo  .  .oooo",
"ooooooooooo   .ooooo",
"ooooooooooo...oooooo",
"ooooooooooo..ooooooo",
"ooooooooooo.oooooooo",
"oooooooooooooooooooo",
"oooooooooooooooooooo",
"oooooooooooooooooooo"
};
