/* XPM */
static const char *sameh_xpm[] = {
/* width height ncolors chars_per_pixel */
"20 19 4 1",
/* colors */
"  c #000000",
". c #00FFFF",
"X c #C0C0C0",
"o c None",
/* pixels */
"oooooooooooooooooooo",
"oooooooooooooooooooo",
"oooooooooooooooooooo",
"ooooooooooo.oooooooo",
"ooooooooooo..ooooooo",
"ooooooooooo...oooooo",
"oooo  ooooo .   oooo",
"oo    ooooo   .  ooo",
"oo..  .... ....  ooo",
"oo..  .... ....  .oo",
"oo..  ... ....  .ooo",
"oooo  ooo o..  .oooo",
"oooo  oo oo.  .ooooo",
"oooo  oo oo.     ooo",
"ooooooooooo..ooooooo",
"ooooooooooo.oooooooo",
"oooooooooooooooooooo",
"oooooooooooooooooooo",
"oooooooooooooooooooo"
};
