/* XPM */
static const char *shiftr_xpm[] = {
/* width height ncolors chars_per_pixel */
"20 19 5 1",
/* colors */
"  c #000000",
". c #C0C0C0",
"X c #FF0000",
"o c #828282",
"O c None",
/* pixels */
"OOOOOOOOOOOOOOOOOOOO",
"OOOOOOOOOOOOOOOOOOOO",
"OOOOOO OOOOOOOOOOOOO",
"OOOOOO  OOOOOOOOOOOO",
"OOOOOO  oOOOOOOOOOOO",
"OOOOOO o OOOXOOOOOOO",
"OOOOOO O oOOXXOOOOOO",
"OOOOOO Oo OOOXXOOOOO",
"OOOOOO OO OOOOXXOOOO",
"OOOOOO OO OOOOOXXOOO",
"OOOOOO O OOOOOXXOOOO",
"OOOOOO OOOOOOXXOOOOO",
"OOO    OOOOOXXOOOOOO",
"OO     OOOOOXOOOOOOO",
"OO     OOOOOOOOOOOOO",
"OOO   OOOOOOOOOOOOOO",
"OOOOOOOOOOOOOOOOOOOO",
"OOOOOOOOOOOOOOOOOOOO",
"OOOOOOOOOOOOOOOOOOOO"
};
