/* XPM */
static const char *shiftl_xpm[] = {
/* width height ncolors chars_per_pixel */
"20 19 5 1",
/* colors */
"  c #000000",
". c #C0C0C0",
"X c #FF0000",
"o c #828282",
"O c None",
/* pixels */
"OOOOOOOOOOOOOOOOOOOO",
"OOOOOOOOOOOOOOOOOOOO",
"OOOOOOOOOOOOOO OOOOO",
"OOOOOOOOOOOOOO  OOOO",
"OOOOOOOOOOOOOO  oOOO",
"OOOOOOOXOOOOOO o OOO",
"OOOOOOXXOOOOOO O oOO",
"OOOOOXXOOOOOOO Oo OO",
"OOOOXXOOOOOOOO OO OO",
"OOOXXOOOOOOOOO OO OO",
"OOOOXXOOOOOOOO O OOO",
"OOOOOXXOOOOOOO OOOOO",
"OOOOOOXXOOO    OOOOO",
"OOOOOOOXOO     OOOOO",
"OOOOOOOOOO     OOOOO",
"OOOOOOOOOOO   OOOOOO",
"OOOOOOOOOOOOOOOOOOOO",
"OOOOOOOOOOOOOOOOOOOO",
"OOOOOOOOOOOOOOOOOOOO"
};
