/* XPM */
static const char *std251_xpm[] = {
/* width height ncolors chars_per_pixel */
"20 19 4 1",
/* colors */
"  c #000000",
". c #00FFFF",
"X c #C0C0C0",
"o c None",
/* pixels */
"oooooooooooooooooooo",
"oooooooooooooooooooo",
"oooooooooooooooooooo",
"ooooooooooo.oooooooo",
"ooooooooooo..ooooooo",
"ooo   oo     .oo  oo",
"oo  o  o  o...    oo",
"ooooo  o  o.....  oo",
"oo...  .    ....  oo",
"oo..  .....  ...  oo",
"oo.  ... ..  ...  oo",
"oo  oooo  o  ...  oo",
"oo     oo   ...o  oo",
"ooooooooooo...oooooo",
"ooooooooooo..ooooooo",
"ooooooooooo.oooooooo",
"oooooooooooooooooooo",
"oooooooooooooooooooo",
"oooooooooooooooooooo"
};
