/* XPM */
static const char *tritone_xpm[] = {
/* width height ncolors chars_per_pixel */
"20 19 4 1",
/* colors */
"  c #000000",
". c #00FFFF",
"X c #C0C0C0",
"o c None",
/* pixels */
"oooooooooooooooooooo",
"oooooooooooooooooooo",
"oooooooooooooooooooo",
"ooooooooooo.oooooooo",
"ooooooooooo..ooooooo",
"oo      ooo..  ooooo",
"oooo  ooooo....ooooo",
"oooo  ooo o    .oooo",
"oo..  ...   .  ..ooo",
"oo..  ...  ..  ...oo",
"oo..  ...  ..  ..ooo",
"oooo  ooo  ..  .oooo",
"oooo  ooo  ..  ooooo",
"ooooooooooo...oooooo",
"ooooooooooo..ooooooo",
"ooooooooooo.oooooooo",
"oooooooooooooooooooo",
"oooooooooooooooooooo",
"oooooooooooooooooooo"
};
