/* XPM */
static const char *zoomout_xpm[] = {
/* width height ncolors chars_per_pixel */
"20 19 5 1",
/* colors */
"  c #000000",
". c #C0C0C0",
"X c #FFFF00",
"o c #0000FF",
"O c None",
/* pixels */
"OOOOOOOOOOOOOOOOOOOO",
"OOOOOOOOOOOOOOOOOOOO",
"OOOOOOOOOOOOOOOOOOOO",
"OOOOOOO    OOOOOOOOO",
"OOOOOO XXXX OOOOOOOO",
"OOOOO XXXXXX OOOOOOO",
"OOOO XXXXXXXX OOOOOO",
"OOOO XooooooX OOOOOO",
"OOOO XooooooX OOOOOO",
"OOOO XXXXXXXX OOOOOO",
"OOOOO XXXXXX  OOOOOO",
"OOOOOO XXXX    OOOOO",
"OOOOOOO    OO    OOO",
"OOOOOOOOOOOOOOO   OO",
"OOOOOOOOOOOOOOOO  OO",
"OOOOOOOOOOOOOOOOOOOO",
"OOOOOOOOOOOOOOOOOOOO",
"OOOOOOOOOOOOOOOOOOOO",
"OOOOOOOOOOOOOOOOOOOO"
};
